PathFileType	4	(X/Y/Z)	Kaydara	
DataRate	CameraRate	NumFrames	NumMarkers	Units	OrigDataRate	OrigDataStartFrame	OrigNumFrames	
60.00	60.00	4	74	mm	60.00	1113	141	
Frame#	Time	Z_lasi			Z_rasi			Z_rpsi			Z_lpsi			Z_fneck			Z_bneck			Z_fhead			Z_rhead			Z_lhead			Z_rshld			Z_relbtop			Z_relbext			Z_relblow			Z_rwrext			Z_rwrtop			Z_rwrlow			Z_lshld			Z_lelbext			Z_lelblow			Z_lelbtop			Z_lwrext			Z_lwrtop			Z_lwrlow			Z_rtopleg			Z_ltopleg			Z_rkneefr			Z_rkneebk			Z_rkneeis			Z_lkneefr			Z_lknssbk			Z_lkneeis			Z_rankfr			Z_rankis			Z_rankbk			Z_lankfr			Z_lankbk			Z_lankis			A_lasi			A_rasi			A_rpsi			A_lpsi			A_fneck			A_bneck			A_fhead			A_rhead			A_lhead			A_rshld			A_relbtop			A_relbext			A_relblow			A_rwrext			A_rwrtop			A_rwrlow			A_lshld			A_lelbext			A_lelblow			A_lelbtop			A_lwrext			A_lwrtop			A_lwrlow			A_rtopleg			A_ltopleg			A_rkneefr			A_rkneebk			A_rkneeis			A_lkneefr			A_lknssbk			A_lkneeis			A_rankfr			A_rankis			A_rankbk			A_lankfr			A_lankbk			A_lankis			
		X1	Y1	Z1	X2	Y2	Z2	X3	Y3	Z3	X4	Y4	Z4	X5	Y5	Z5	X6	Y6	Z6	X7	Y7	Z7	X8	Y8	Z8	X9	Y9	Z9	X10	Y10	Z10	X11	Y11	Z11	X12	Y12	Z12	X13	Y13	Z13	X14	Y14	Z14	X15	Y15	Z15	X16	Y16	Z16	X17	Y17	Z17	X18	Y18	Z18	X19	Y19	Z19	X20	Y20	Z20	X21	Y21	Z21	X22	Y22	Z22	X23	Y23	Z23	X24	Y24	Z24	X25	Y25	Z25	X26	Y26	Z26	X27	Y27	Z27	X28	Y28	Z28	X29	Y29	Z29	X30	Y30	Z30	X31	Y31	Z31	X32	Y32	Z32	X33	Y33	Z33	X34	Y34	Z34	X35	Y35	Z35	X36	Y36	Z36	X37	Y37	Z37	X38	Y38	Z38	X39	Y39	Z39	X40	Y40	Z40	X41	Y41	Z41	X42	Y42	Z42	X43	Y43	Z43	X44	Y44	Z44	X45	Y45	Z45	X46	Y46	Z46	X47	Y47	Z47	X48	Y48	Z48	X49	Y49	Z49	X50	Y50	Z50	X51	Y51	Z51	X52	Y52	Z52	X53	Y53	Z53	X54	Y54	Z54	X55	Y55	Z55	X56	Y56	Z56	X57	Y57	Z57	X58	Y58	Z58	X59	Y59	Z59	X60	Y60	Z60	X61	Y61	Z61	X62	Y62	Z62	X63	Y63	Z63	X64	Y64	Z64	X65	Y65	Z65	X66	Y66	Z66	X67	Y67	Z67	X68	Y68	Z68	X69	Y69	Z69	X70	Y70	Z70	X71	Y71	Z71	X72	Y72	Z72	X73	Y73	Z73	X74	Y74	Z74	

53	18.533	-226.14227	1078.31795	706.27304	-292.10018	1087.24541	509.76379	-126.48255	1114.70757	419.43157	-41.38868	1100.30746	648.52562	-223.61914	1453.97141	595.72212	-108.87888	1507.58453	581.93501	-287.25647	1670.64102	576.53965	-148.47152	1640.65506	486.12625	-127.26620	1651.83395	632.65114	-184.29123	1438.94409	379.75842	-150.94851	1120.29373	294.60104	-123.56458	1102.46162	346.88595	-216.28183	1129.21341	334.79111	-247.70555	892.20116	300.38492	-279.07663	904.64088	332.05967	-253.16505	899.08829	366.21494	-106.13730	1442.07855	768.87589	-65.06866	1125.54245	774.72214	-124.08788	1145.03624	839.89235	-55.05985	1145.39932	842.78244	-182.48198	886.96983	831.75873	-169.73572	880.03090	876.61331	-123.78510	877.56721	866.51718	-175.99144	925.29205	374.90772	-133.82526	894.06807	738.83583	-241.55123	422.73094	411.29139	-170.94858	453.20988	362.59888	-178.64082	428.92559	486.24790	-185.50373	446.63231	692.31781	-80.32860	471.47369	675.61028	-178.93345	443.70426	598.99593	-202.24352	181.99293	379.75487	-179.51841	174.81836	441.84818	-125.91674	173.56386	372.81239	-123.62659	162.47990	679.38950	-69.02227	165.88293	619.47006	-148.72777	174.22655	612.48127	-980.48286	1033.19016	471.96602	-971.74538	1039.41856	631.89030	-1130.67314	1037.27112	651.51108	-1104.73030	1041.30165	469.48391	-1043.53867	1380.96100	564.18995	-1181.78780	1413.45078	552.78942	-986.79413	1590.74997	578.90640	-1137.71706	1556.21414	654.10179	-1129.08295	1561.64780	491.18328	-1117.35504	1349.72900	739.60938	-1047.44514	1066.17401	766.88118	-1109.23096	1045.77835	771.66382	-1064.85443	1054.26498	712.94220	-951.09276	839.67155	725.19714	-917.03270	868.38974	714.32846	-936.25099	878.88031	681.17081	-1075.47852	1351.72165	386.34533	-1056.84708	1039.68399	349.59511	-1012.20322	1061.64787	405.10509	-1009.39499	1053.82118	351.18961	-939.86465	874.30244	479.24038	-924.91035	857.88589	440.83572	-891.25107	882.07642	460.36953	-1073.87054	875.55428	732.97684	-1039.82803	890.03967	395.99335	-1030.00198	451.66080	641.05103	-1137.72537	485.85602	686.22681	-1117.82211	485.67547	568.03970	-1015.13008	464.59938	508.92864	-1100.65193	480.06100	413.42670	-1122.97478	479.13948	537.80975	-1100.25734	165.65233	663.31810	-1133.35281	162.38026	597.51129	-1181.40671	153.25747	666.69220	-1068.49731	166.60114	457.14931	-1129.59152	167.81231	421.61114	-1128.14445	173.08496	511.07819 
54	18.550	-226.60782	1078.38165	704.81598	-292.66844	1087.22382	508.36437	-127.29105	1115.04982	418.05088	-41.78928	1100.47523	646.99982	-224.24019	1454.10828	593.74348	-109.60607	1507.80731	579.86439	-288.38051	1670.40161	573.65204	-149.30351	1640.62134	483.55370	-128.47858	1652.39532	629.98051	-184.74026	1438.59985	377.73399	-151.16956	1119.94087	293.11251	-123.97159	1102.21184	345.49484	-216.74520	1128.99719	332.92133	-248.10896	891.87820	298.99544	-279.50655	904.40056	330.63335	-253.73119	898.78288	364.75811	-106.81489	1442.61978	766.96693	-65.76037	1126.01181	773.19046	-124.87525	1145.63904	838.29590	-55.75278	1146.01860	841.19133	-183.58768	887.63260	829.92943	-171.06188	880.71175	874.85596	-125.31990	878.22998	865.09674	-176.63216	925.35492	373.46748	-134.14665	894.18747	737.28691	-241.06958	422.84851	410.65311	-170.48319	453.19675	361.91422	-177.74958	428.95344	485.44121	-185.35023	446.77841	691.47484	-80.31263	471.62811	674.67789	-179.01913	443.66379	598.28678	-202.05395	181.96325	379.39220	-179.14799	174.79553	441.54335	-125.80510	173.43256	372.52293	-124.08373	162.88445	679.55559	-69.02160	165.89170	619.19926	-148.68889	174.20572	612.23736	-980.00389	1033.22876	471.80538	-971.59378	1039.29459	631.98067	-1130.38361	1037.29111	651.53130	-1104.39819	1041.43311	469.54788	-1043.42896	1381.02692	564.35734	-1181.76544	1413.89618	552.94479	-986.33842	1590.43762	578.12256	-1137.48306	1557.06802	653.50388	-1128.71109	1561.57196	490.48042	-1116.96747	1349.67239	739.82323	-1046.82846	1066.12640	766.85150	-1108.45154	1045.76721	771.80069	-1064.31831	1054.28276	712.88094	-950.40894	839.53598	724.77180	-916.58470	868.27820	713.86726	-935.90233	878.67149	680.77629	-1075.29388	1351.88004	386.54602	-1056.18851	1039.98077	349.75216	-1011.76117	1061.77521	405.39684	-1008.78639	1054.00925	351.48869	-939.24889	874.07997	479.75388	-924.68422	857.77443	440.73769	-891.04553	881.86310	460.40012	-1073.72696	875.56107	732.96692	-1039.78958	890.02823	395.94936	-1030.11871	451.56864	640.97641	-1137.82761	485.82478	686.25282	-1117.96219	485.62366	568.05847	-1015.35271	464.49745	508.97713	-1100.77057	480.02602	413.33481	-1123.07098	479.11133	537.72175	-1100.30144	165.63938	663.29063	-1133.39828	162.37034	597.50298	-1181.47552	153.24754	666.70151	-1068.56155	166.58552	457.12627	-1129.62547	167.80190	421.58318	-1128.18771	173.09105	511.04988 
55	18.567	-227.09047	1078.48389	703.35274	-293.10242	1087.15065	506.93707	-127.62961	1115.16029	416.29219	-42.44656	1100.65674	645.55496	-224.87036	1454.18488	591.73256	-110.19101	1507.90466	577.81086	-289.46415	1670.22141	570.89710	-150.15020	1640.47882	481.03024	-129.53638	1652.77435	627.50927	-185.26096	1438.31161	375.80956	-151.33150	1119.58817	291.52630	-124.30410	1101.95900	344.11251	-216.87321	1128.75778	331.30180	-248.46256	891.52451	297.72989	-279.93336	904.18442	329.27357	-254.00829	898.53920	363.49083	-107.62119	1443.00613	765.13313	-66.45022	1126.45790	771.60332	-125.62444	1146.25671	836.71158	-56.54912	1146.52878	839.66385	-184.90133	888.41507	828.26263	-172.45861	881.53648	873.17963	-126.78801	878.81950	863.67722	-176.95498	925.41153	371.83155	-134.42932	894.36165	735.82291	-240.76313	422.85370	410.10063	-170.23418	453.13797	361.04118	-177.30854	429.06197	484.72164	-185.45376	446.81252	690.80055	-80.43592	471.68259	673.79196	-179.25808	443.60485	597.55962	-201.92768	181.90052	379.07925	-178.90646	174.78451	441.29036	-125.76807	173.30662	372.22034	-124.10040	163.05603	679.45335	-69.09030	165.90290	618.93288	-148.73848	174.10839	611.85143	-979.64188	1033.26065	471.72325	-971.24084	1039.25156	631.91338	-1130.11559	1037.26341	651.55045	-1104.09714	1041.49734	469.52255	-1043.41721	1381.00494	564.59827	-1181.72989	1414.27582	553.06953	-985.80315	1589.85748	577.56023	-1137.21085	1557.77084	653.03810	-1128.22533	1561.40411	490.11513	-1116.83388	1349.56543	740.06721	-1046.14944	1066.10855	766.91948	-1107.76962	1045.73219	771.97098	-1063.82874	1054.30298	713.03146	-949.72054	839.54445	724.36272	-916.06033	868.30353	713.34679	-935.62149	878.56552	680.38742	-1075.27428	1351.98517	386.73100	-1055.62698	1040.21683	349.91062	-1011.28616	1062.00096	405.67329	-1008.14621	1054.24332	351.77658	-939.36478	873.93257	479.30824	-924.35982	857.70279	440.58838	-890.78026	881.72256	460.35267	-1073.54103	875.57274	732.99004	-1039.66652	890.00763	395.90801	-1030.15038	451.50803	640.91934	-1137.87376	485.80055	686.20697	-1117.97379	485.57842	568.02227	-1015.41183	464.40811	508.92616	-1100.79056	480.00820	413.25706	-1123.12843	479.09725	537.64580	-1100.30380	165.62136	663.25127	-1133.41774	162.34690	597.47913	-1181.49879	153.21393	666.65970	-1068.58841	166.56919	457.10121	-1129.62440	167.81000	421.55987	-1128.22350	173.08990	511.00060 
56	18.583	-227.40883	1078.47267	701.91574	-293.49669	1087.04826	505.52216	-128.01220	1115.18799	414.69028	-42.79745	1100.77072	643.98087	-225.54920	1454.21478	589.83078	-111.21178	1508.01849	576.00319	-290.37645	1670.07080	568.20457	-150.97163	1640.28320	478.69755	-130.50974	1653.25287	625.10410	-185.85079	1438.00140	373.96275	-151.64864	1119.28528	290.18814	-124.73926	1101.66756	342.76386	-217.31842	1128.43239	329.72885	-248.78666	891.22208	296.53971	-280.18658	903.86833	328.08968	-254.46808	898.30872	362.29252	-108.42082	1443.40775	763.33611	-67.29784	1126.89735	770.11673	-126.28679	1146.66901	835.01053	-56.98131	1146.86447	837.32155	-186.57564	889.19846	826.76521	-174.02588	882.18735	871.65878	-128.27470	879.34235	861.92108	-177.52449	925.46272	370.59101	-134.58900	894.52171	734.39514	-240.80957	422.83817	409.41101	-170.36768	452.97119	360.37590	-177.55051	429.18095	483.94424	-185.64869	446.89831	690.18021	-80.54458	471.82423	672.87621	-179.56148	443.53970	596.96690	-201.94489	181.80450	378.81355	-178.88041	174.86237	441.03115	-125.80175	173.22926	371.87805	-124.18232	163.21766	679.30199	-69.24651	165.91656	618.72105	-148.77984	173.84661	611.32195	-979.43573	1033.26462	471.69807	-970.99739	1039.22371	631.85863	-1129.88892	1037.17720	651.55998	-1103.86940	1041.50810	469.46632	-1043.38539	1380.88013	564.79862	-1181.73668	1414.54529	553.17928	-984.92363	1589.51157	576.80676	-1136.47293	1558.49411	652.49352	-1127.54448	1561.11664	489.51557	-1116.73645	1349.48273	740.30121	-1045.33424	1066.11267	767.07268	-1107.10098	1045.71480	772.34261	-1063.40897	1054.40620	713.33755	-949.22646	839.73717	724.07707	-915.41100	868.57582	712.62665	-935.22148	878.68896	679.78836	-1075.41122	1352.06024	386.89278	-1055.03548	1040.41771	349.86195	-1010.98129	1062.11769	405.90218	-1007.54723	1054.47823	352.03785	-941.94267	873.30154	475.95066	-924.03641	857.74643	440.45582	-890.43655	881.68900	460.29198	-1073.06900	875.46486	732.83371	-1039.44275	890.01823	395.84805	-1030.10857	451.46416	640.86891	-1137.82875	485.81287	686.16852	-1117.92816	485.56129	567.94479	-1015.42313	464.35379	508.87524	-1100.75150	479.99554	413.21068	-1123.08929	479.10610	537.62142	-1100.30487	165.61920	663.25447	-1133.39874	162.35281	597.45487	-1181.46263	153.21938	666.60011	-1068.55728	166.57124	457.09606	-1129.62692	167.78509	421.53053	-1128.21198	173.11914	511.00445 
